<svg xmlns="http://www.w3.org/2000/svg" width="23.557" height="23.557" viewBox="0 0 23.557 23.557">
  <g id="Group_549708" data-name="Group 549708" transform="translate(0 0)">
    <path id="Path_238668" data-name="Path 238668" d="M11.779,0A11.779,11.779,0,1,0,23.557,11.778,11.779,11.779,0,0,0,11.779,0m.731,17.844a6.119,6.119,0,0,1-4-.882.414.414,0,0,0-.387-.043c-.71.234-1.424.457-2.19.7.229-.685.427-1.325.661-1.953a.663.663,0,0,0-.079-.673,6.244,6.244,0,1,1,5.991,2.848" transform="translate(0 0.001)" fill="#006fe3"/>
    <path id="Path_238669" data-name="Path 238669" d="M138.845,137.978a8.2,8.2,0,0,1-1.176-.391,8.557,8.557,0,0,1-3.963-4.014,2.29,2.29,0,0,1-.259-1.346.6.6,0,0,1,.051-.2,2.987,2.987,0,0,1,1.053-1.08.6.6,0,0,1,.746.139c.329.316.655.636.967.969a.64.64,0,0,1-.212,1.057.668.668,0,0,0-.376,1.016,3.015,3.015,0,0,0,1.552,1.526.662.662,0,0,0,.966-.378.651.651,0,0,1,1.1-.2q.471.464.924.946a.694.694,0,0,1-.009,1.016c-.182.19-.376.368-.556.56a1.039,1.039,0,0,1-.791.321l-.02.061" transform="translate(-125.157 -122.757)" fill="#006fe3"/>
  </g>
</svg>
