<svg id="Group_544756" data-name="Group 544756" xmlns="http://www.w3.org/2000/svg" xmlns:xlink="http://www.w3.org/1999/xlink" width="164.42" height="47.327" viewBox="0 0 164.42 47.327">
  <defs>
    <clipPath id="clip-path">
      <rect id="Rectangle_147067" data-name="Rectangle 147067" width="164.42" height="47.327" fill="none"/>
    </clipPath>
  </defs>
  <g id="Group_462482" data-name="Group 462482" transform="translate(0 0)" clip-path="url(#clip-path)">
    <path id="Path_197509" data-name="Path 197509" d="M40.4,38.291h-2.56V43.7H36.564V31.012H40.4c2.94,0,4.284,1.561,4.284,3.648,0,2.052-1.307,3.63-4.284,3.63m0-1.088c2.142,0,2.978-.981,2.978-2.543,0-1.634-.835-2.578-2.978-2.578h-2.56V37.2Z" transform="translate(4.105 3.481)" fill="#231f20"/>
    <path id="Path_197510" data-name="Path 197510" d="M50.171,33.377A4.139,4.139,0,0,1,54.093,35.7V33.524h1.27v9.911h-1.27v-2.2a4.186,4.186,0,0,1-3.94,2.341c-2.705,0-4.719-2.014-4.719-5.119s2.014-5.084,4.737-5.084m.237,1.109c-2.089,0-3.687,1.451-3.687,3.975,0,2.506,1.6,4.012,3.687,4.012a3.693,3.693,0,0,0,3.685-3.994,3.693,3.693,0,0,0-3.685-3.993" transform="translate(5.1 3.747)" fill="#231f20"/>
    <path id="Path_197511" data-name="Path 197511" d="M58.428,43.439h-1.27V33.527h1.27v1.761a3.415,3.415,0,0,1,3.4-1.943V34.67h-.346c-1.652,0-3.05.745-3.05,3.231Z" transform="translate(6.417 3.743)" fill="#231f20"/>
    <path id="Path_197512" data-name="Path 197512" d="M63.714,34.83H62.335V33.76h1.379V31.272H65V33.76h2.723v1.07H65v6.155c0,1.216.418,1.6,1.561,1.6h1.162v1.09H66.365c-1.725,0-2.651-.709-2.651-2.686Z" transform="translate(6.998 3.51)" fill="#231f20"/>
    <path id="Path_197513" data-name="Path 197513" d="M76.669,37.774c0-2.2-1.2-3.321-3.014-3.321-1.852,0-3.141,1.161-3.141,3.576v5.41H69.242V33.527h1.271v1.687a3.623,3.623,0,0,1,3.376-1.87c2.252,0,4.032,1.379,4.032,4.284v5.809H76.669Z" transform="translate(7.773 3.743)" fill="#231f20"/>
    <path id="Path_197514" data-name="Path 197514" d="M84.1,43.581a4.726,4.726,0,0,1-4.866-5.1c0-3.158,2.017-5.1,4.866-5.1a4.455,4.455,0,0,1,4.684,4.594,8.84,8.84,0,0,1-.036,1H80.526A3.466,3.466,0,0,0,84.1,42.51,3.067,3.067,0,0,0,87.3,40.3h1.344A4.356,4.356,0,0,1,84.1,43.581m-3.577-5.646H87.5a3.242,3.242,0,0,0-3.449-3.468,3.424,3.424,0,0,0-3.523,3.468" transform="translate(8.895 3.747)" fill="#231f20"/>
    <path id="Path_197515" data-name="Path 197515" d="M91.369,43.439H90.1V33.527h1.271v1.761a3.415,3.415,0,0,1,3.4-1.943V34.67h-.346c-1.652,0-3.05.745-3.05,3.231Z" transform="translate(10.114 3.743)" fill="#231f20"/>
    <path id="Path_197516" data-name="Path 197516" d="M14.274,14.17a1.606,1.606,0,0,0,1.139.47V0a3.3,3.3,0,0,0-2.344.971L8.92,5.114l-.02.02L7.063,6.969Z" transform="translate(0.793 0)" fill="#00d77a"/>
    <path id="Path_197517" data-name="Path 197517" d="M.971,12.459a3.307,3.307,0,0,0,0,4.682L10.2,26.36a2.261,2.261,0,0,1,.663,1.6V33.02a3.312,3.312,0,0,0,3.315,3.31h2.027V26.259a2.848,2.848,0,0,1-2.019-.833L1.089,12.342" transform="translate(0 1.385)" fill="#00d77a"/>
    <path id="Path_197518" data-name="Path 197518" d="M1.769,11.758l13.1,13.084a1.606,1.606,0,0,0,1.139.47V20.759a2.849,2.849,0,0,1-2.019-.834L3.79,9.739Z" transform="translate(0.199 1.093)" fill="#00d77a"/>
    <path id="Path_197519" data-name="Path 197519" d="M4.376,9.162l10.2,10.186a1.6,1.6,0,0,0,1.139.472v-4.73a2.848,2.848,0,0,1-2.018-.833l-7.211-7.2Z" transform="translate(0.491 0.792)" fill="#00d77a"/>
    <path id="Path_197520" data-name="Path 197520" d="M23.8,7.055l-7.211,7.2a2.845,2.845,0,0,1-2.018.834v4.73a1.6,1.6,0,0,0,1.139-.472l10.2-10.186Z" transform="translate(1.636 0.792)" fill="#005bff"/>
    <path id="Path_197521" data-name="Path 197521" d="M15.71,14.17l7.211-7.2L21.083,5.134l-.02-.02L16.915.971A3.3,3.3,0,0,0,14.571,0V14.641a1.606,1.606,0,0,0,1.139-.47" transform="translate(1.636 0)" fill="#005bff"/>
    <path id="Path_197522" data-name="Path 197522" d="M29.689,12.343l-13.1,13.084a2.848,2.848,0,0,1-2.018.833V36.331H16.6a3.313,3.313,0,0,0,3.315-3.31V27.958a2.257,2.257,0,0,1,.663-1.6l9.232-9.218a3.309,3.309,0,0,0,0-4.682Z" transform="translate(1.636 1.385)" fill="#005bff"/>
    <path id="Path_197523" data-name="Path 197523" d="M26.788,9.738l-10.2,10.186a2.845,2.845,0,0,1-2.019.834v4.552a1.61,1.61,0,0,0,1.14-.47l13.1-13.084Z" transform="translate(1.636 1.093)" fill="#005bff"/>
    <path id="Path_197524" data-name="Path 197524" d="M39.776,10.427H48.6L49.92,7.42H36.559V28.181h3.217" transform="translate(4.104 0.833)" fill="#231f20"/>
    <path id="Path_197525" data-name="Path 197525" d="M146.248,15.577h2.816V27.315h-2.8V26.171a5.4,5.4,0,0,1-7.853-.2,6.626,6.626,0,0,1-1.625-4.57,6.423,6.423,0,0,1,1.625-4.485,5.261,5.261,0,0,1,4.069-1.794,5.161,5.161,0,0,1,3.784,1.721ZM139.636,21.4a4.142,4.142,0,0,0,.931,2.8,3.058,3.058,0,0,0,2.406,1.093,3.221,3.221,0,0,0,2.507-1.057,4.072,4.072,0,0,0,.954-2.777,4.067,4.067,0,0,0-.954-2.776A3.173,3.173,0,0,0,143,17.62a3.1,3.1,0,0,0-2.407,1.081,3.958,3.958,0,0,0-.955,2.7" transform="translate(15.355 1.698)" fill="#231f20"/>
    <path id="Path_197526" data-name="Path 197526" d="M82.9,9.574l2.8-2.156V28.181H82.9V27.036a5.229,5.229,0,0,1-3.734,1.6,5.337,5.337,0,0,1-4.119-1.794,6.626,6.626,0,0,1-1.625-4.57A6.408,6.408,0,0,1,75.043,17.8a5.252,5.252,0,0,1,7.853-.086Zm-6.625,12.7a4.147,4.147,0,0,0,.93,2.8,3.062,3.062,0,0,0,2.407,1.093,3.221,3.221,0,0,0,2.507-1.057,4.072,4.072,0,0,0,.954-2.777,4.067,4.067,0,0,0-.954-2.776,3.173,3.173,0,0,0-2.481-1.069,3.1,3.1,0,0,0-2.407,1.081,3.958,3.958,0,0,0-.955,2.7" transform="translate(8.242 0.833)" fill="#231f20"/>
    <path id="Path_197527" data-name="Path 197527" d="M133.873,15.124V27.316h-2.791V17.269Z" transform="translate(14.715 1.698)" fill="#231f20"/>
    <path id="Path_197528" data-name="Path 197528" d="M133.874,10.019v2.915l-2.792,2.142V12.163Z" transform="translate(14.715 1.124)" fill="#005bff"/>
    <path id="Path_197529" data-name="Path 197529" d="M60.869,15.577h2.8v1a4.611,4.611,0,0,1,3.3-1.449,4.2,4.2,0,0,1,3.288,1.327A5.352,5.352,0,0,1,71.278,20.1v7.214h-2.8V20.752a4.343,4.343,0,0,0-.5-2.445,2.01,2.01,0,0,0-1.762-.688,2.16,2.16,0,0,0-1.972.91,6.205,6.205,0,0,0-.571,3.133v5.654h-2.8Z" transform="translate(6.833 1.698)" fill="#231f20"/>
    <path id="Path_197530" data-name="Path 197530" d="M126.327,9.573l2.8-2.154V28.18h-2.8V27.036a5.229,5.229,0,0,1-3.734,1.6,5.337,5.337,0,0,1-4.119-1.794,6.626,6.626,0,0,1-1.625-4.57,6.408,6.408,0,0,1,1.625-4.472,5.252,5.252,0,0,1,7.853-.086Zm-6.625,12.7a4.147,4.147,0,0,0,.93,2.8,3.062,3.062,0,0,0,2.407,1.093,3.221,3.221,0,0,0,2.507-1.057,4.072,4.072,0,0,0,.954-2.777,4.067,4.067,0,0,0-.954-2.776,3.173,3.173,0,0,0-2.481-1.069,3.1,3.1,0,0,0-2.407,1.081,3.958,3.958,0,0,0-.955,2.7" transform="translate(13.118 0.833)" fill="#231f20"/>
    <path id="Path_197531" data-name="Path 197531" d="M95.492,17.5l-2.308,1.217q-.546-1.106-1.353-1.107a.937.937,0,0,0-.657.252.84.84,0,0,0-.272.645q0,.687,1.613,1.364a9.623,9.623,0,0,1,2.99,1.745,2.97,2.97,0,0,1,.77,2.15,3.751,3.751,0,0,1-1.291,2.9,4.649,4.649,0,0,1-7.332-1.831l2.382-1.093a5.088,5.088,0,0,0,.757,1.093,1.733,1.733,0,0,0,1.216.467q1.413,0,1.414-1.278,0-.737-1.092-1.376c-.28-.14-.562-.275-.843-.406s-.566-.266-.855-.406a5.223,5.223,0,0,1-1.713-1.179,2.888,2.888,0,0,1-.633-1.929,3.4,3.4,0,0,1,1.08-2.58,3.8,3.8,0,0,1,2.679-1.02A3.656,3.656,0,0,1,95.492,17.5" transform="translate(9.84 1.698)" fill="#231f20"/>
    <path id="Path_197532" data-name="Path 197532" d="M51.189,15.531v6.748q0,2.975,2.369,2.974t2.37-2.974l-.014-6.748H58.72v6.81a7.63,7.63,0,0,1-.36,2.481,4.163,4.163,0,0,1-1.2,1.683,5.909,5.909,0,0,1-7.183,0,4.22,4.22,0,0,1-1.228-1.683,6.76,6.76,0,0,1-.348-2.481v-6.81Z" transform="translate(5.433 1.743)" fill="#231f20"/>
    <path id="Path_197533" data-name="Path 197533" d="M98.595,9.574l2.8-2.154V28.181h-2.8Z" transform="translate(11.068 0.833)" fill="#231f20"/>
    <path id="Path_197534" data-name="Path 197534" d="M39.451,27.579v-8.4H44.53l1.324-3.008h-6.4V9.825" transform="translate(4.429 1.103)" fill="#231f20"/>
    <path id="Path_197535" data-name="Path 197535" d="M104.3,15.577h2.8v1a4.611,4.611,0,0,1,3.3-1.449,4.2,4.2,0,0,1,3.288,1.327,5.352,5.352,0,0,1,1.017,3.649v7.214h-2.8V20.752a4.344,4.344,0,0,0-.5-2.445,2.01,2.01,0,0,0-1.762-.688,2.16,2.16,0,0,0-1.972.91,6.206,6.206,0,0,0-.571,3.133v5.654h-2.8Z" transform="translate(11.709 1.698)" fill="#231f20"/>
  </g>
</svg>
