<svg xmlns="http://www.w3.org/2000/svg" width="23.557" height="23.557" viewBox="0 0 23.557 23.557">
  <path id="Path_238665" data-name="Path 238665" d="M1123.131,0a11.779,11.779,0,1,0,11.779,11.779A11.779,11.779,0,0,0,1123.131,0m.423,15.9q-.675.92-1.351,1.839a.381.381,0,0,1-.592.095.462.462,0,0,1-.134-.287c-.011-.8-.006-1.6-.005-2.393a.266.266,0,0,1,.011-.042l2.109.721a.69.69,0,0,1-.038.067m5.891-9.475q-.074.516-.151,1.032-.239,1.609-.478,3.218t-.48,3.23q-.157,1.05-.314,2.1a.4.4,0,0,1-.171.286.454.454,0,0,1-.434.019q-2.082-.714-4.166-1.425l-1.243-.426,5.278-6.36a.112.112,0,0,0-.088.031q-3.334,2.85-6.666,5.7a.2.2,0,0,1-.228.049q-1.512-.524-3.029-1.036a.6.6,0,0,1-.4-.312v-.2a.549.549,0,0,1,.266-.289q3.215-1.674,6.427-3.354l5.4-2.823h.2c.271.15.318.244.274.554" transform="translate(-1111.352 0.001)" fill="#006fe3"/>
</svg>
