<svg id="Group_508930" data-name="Group 508930" xmlns="http://www.w3.org/2000/svg" xmlns:xlink="http://www.w3.org/1999/xlink" width="14.803" height="10.012" viewBox="0 0 14.803 10.012">
  <defs>
    <clipPath id="clip-path">
      <rect id="Rectangle_149106" data-name="Rectangle 149106" width="14.803" height="10.012" fill="#ea9954"/>
    </clipPath>
  </defs>
  <g id="Group_508903" data-name="Group 508903" clip-path="url(#clip-path)">
    <path id="Path_200415" data-name="Path 200415" d="M0,4.711a.566.566,0,0,1,.615-.347c.211.014.424,0,.636,0,.468,0,.619.153.619.626q0,.817,0,1.634v.186c.066-.062.108-.1.147-.137Q4.281,4.411,6.544,2.146A.912.912,0,0,1,7.5,1.855a1.2,1.2,0,0,1,.46.279c.531.511,1.047,1.038,1.568,1.56.037.037.07.079.149.168a.865.865,0,0,1,.1-.167q1.751-1.755,3.508-3.5A.682.682,0,0,1,13.639,0a.477.477,0,0,1,.34.109c.249.219.477.462.708.7a.978.978,0,0,1,.117.2v.231a4.51,4.51,0,0,1-.289.352q-2.061,2.068-4.128,4.131a.944.944,0,0,1-1.469,0c-.548-.548-1.1-1.1-1.631-1.634L3.237,8.141c.036,0,.081.006.127.006H5.127a.463.463,0,0,1,.515.519c0,.284,0,.569,0,.853a.455.455,0,0,1-.486.49q-2.335,0-4.669,0A.5.5,0,0,1,0,9.655Z" transform="translate(0 0)" fill="#ea9954"/>
  </g>
</svg>
