<svg xmlns="http://www.w3.org/2000/svg" xmlns:xlink="http://www.w3.org/1999/xlink" width="40" height="40" viewBox="0 0 40 40">
  <defs>
    <clipPath id="clip-path">
      <rect id="Rectangle_69657" data-name="Rectangle 69657" width="20.306" height="20.317" fill="#0171e7"/>
    </clipPath>
  </defs>
  <g id="Group_509017" data-name="Group 509017" transform="translate(-297 -414)">
    <circle id="Ellipse_2649" data-name="Ellipse 2649" cx="20" cy="20" r="20" transform="translate(297 414)" fill="#f0f0f4"/>
    <g id="Group_509091" data-name="Group 509091" transform="translate(306.846 423.842)">
      <g id="Group_412545" data-name="Group 412545" clip-path="url(#clip-path)">
        <path id="Path_124545" data-name="Path 124545" d="M0,9.562C.052,9.2.095,8.844.158,8.488a10.369,10.369,0,0,1,.8-2.5.545.545,0,0,1,.052-.074C1.593,6.5,2.17,7.078,2.753,7.653c.094.092.036.173.012.253a7.3,7.3,0,0,0-.337,2.542,7.638,7.638,0,0,0,2.425,5.325A7.442,7.442,0,0,0,8.712,17.75a7.508,7.508,0,0,0,6.35-1.626,7.445,7.445,0,0,0,2.752-4.93,7.482,7.482,0,0,0-1.688-5.94A7.54,7.54,0,0,0,11.216,2.5a7.43,7.43,0,0,0-3.271.259.332.332,0,0,1-.391-.1C7.014,2.1,6.464,1.56,5.905,1A7.548,7.548,0,0,1,6.959.563,9.658,9.658,0,0,1,9.431.034.742.742,0,0,0,9.562,0h1.19a1.265,1.265,0,0,0,.41.048,9.947,9.947,0,0,1,6.1,2.882,9.9,9.9,0,0,1,3,8.241,9.626,9.626,0,0,1-2.181,5.311A10,10,0,0,1,10.6,20.3a9.257,9.257,0,0,1-4.258-.746A10.077,10.077,0,0,1,.16,11.907c-.076-.38-.108-.77-.16-1.155V9.562" fill="#0171e7"/>
        <path id="Path_124546" data-name="Path 124546" d="M3.174,0a2.122,2.122,0,0,1,.51.424q1.61,1.63,3.223,3.256a.863.863,0,0,1,.278.668c-.012.582,0,1.164-.007,1.745a.519.519,0,0,0,.167.415Q8.909,8.058,10.46,9.62a1.491,1.491,0,0,1,.2.223.588.588,0,0,1-.819.808,1.465,1.465,0,0,1-.208-.182Q8.049,8.892,6.474,7.312a.415.415,0,0,0-.329-.134c-.615.007-1.23,0-1.844.005a.747.747,0,0,1-.569-.228Q1.988,5.207.24,3.464A3.028,3.028,0,0,1,0,3.134V2.857a.687.687,0,0,1,.746-.48c.507.014,1.015,0,1.522.006.122,0,.156-.033.155-.155-.007-.494.008-.989-.006-1.482A.687.687,0,0,1,2.9,0Z" fill="#0171e7"/>
        <path id="Path_124547" data-name="Path 124547" d="M102.036,107.54a5.373,5.373,0,0,1-5.226-4.309,5.218,5.218,0,0,1,.175-2.7c.036-.108.09-.126.2-.139a.985.985,0,0,1,.963.385,11.905,11.905,0,0,0,.877.889.244.244,0,0,1,.094.221,2.945,2.945,0,0,0,1.866,3.067,2.97,2.97,0,1,0,.79-5.718.225.225,0,0,1-.209-.074c-.4-.4-.8-.809-1.208-1.2-.1-.1-.078-.2-.078-.31,0-.52,0-.52.508-.648a5.346,5.346,0,1,1,2.317,10.434,5.7,5.7,0,0,1-1.064.1" transform="translate(-91.903 -92.027)" fill="#0171e7"/>
      </g>
    </g>
  </g>
</svg>
