<svg xmlns="http://www.w3.org/2000/svg" xmlns:xlink="http://www.w3.org/1999/xlink" width="40" height="40" viewBox="0 0 40 40">
  <defs>
    <clipPath id="clip-path">
      <rect id="Rectangle_149192" data-name="Rectangle 149192" width="22.897" height="19.974" fill="#8198ac"/>
    </clipPath>
  </defs>
  <g id="Group_509081" data-name="Group 509081" transform="translate(-297 -414)">
    <circle id="Ellipse_2649" data-name="Ellipse 2649" cx="20" cy="20" r="20" transform="translate(297 414)" fill="#f0f0f4"/>
    <g id="Group_508974" data-name="Group 508974" transform="translate(305.552 424.013)">
      <g id="Group_508957" data-name="Group 508957" clip-path="url(#clip-path)">
        <path id="Path_200431" data-name="Path 200431" d="M289.251,163.309a.712.712,0,0,0-.047.1,1.313,1.313,0,0,1-1.235,1c-.87.031-1.742.013-2.614.013a1.03,1.03,0,0,1-.174-.033v-.24c0-1.154.022-2.309,0-3.463a6.684,6.684,0,0,0-1.138-3.836c-.233-.327-.5-.631-.761-.964a2.4,2.4,0,0,1,1.181-.586,6.6,6.6,0,0,1,2.421-.013,2.98,2.98,0,0,1,2.331,2.451.822.822,0,0,0,.041.123Z" transform="translate(-266.354 -145.902)" fill="#0171e7"/>
        <path id="Path_200432" data-name="Path 200432" d="M96.115,165.635q-2.023,0-4.046,0a1.714,1.714,0,0,1-1.148-.354,1.467,1.467,0,0,1-.58-1.138c-.013-1.281-.046-2.564,0-3.843a5.236,5.236,0,0,1,3.043-4.769,5.451,5.451,0,0,1,2.149-.548,9.512,9.512,0,0,1,2.867.159,5.406,5.406,0,0,1,3.946,4.622c.1,1.469.046,2.948.043,4.423a1.75,1.75,0,0,1-.166.6,1.063,1.063,0,0,1-.915.726c-.754.072-1.512.125-2.27.143-.975.024-1.952.006-2.928.006v-.022" transform="translate(-84.922 -145.691)" fill="#0171e7"/>
        <path id="Path_200433" data-name="Path 200433" d="M130.413,0a3.889,3.889,0,1,1-3.893,3.887A3.882,3.882,0,0,1,130.413,0" transform="translate(-118.961 -0.001)" fill="#0171e7"/>
        <path id="Path_200434" data-name="Path 200434" d="M4.046,164.964a2.5,2.5,0,0,1-.255.025c-.8,0-1.609.007-2.414,0A1.316,1.316,0,0,1,0,163.582q0-2.369,0-4.738a3,3,0,0,1,3-3.063,13.826,13.826,0,0,1,1.867.106,2.175,2.175,0,0,1,1.118.569c-.05.058-.094.114-.142.166a6.12,6.12,0,0,0-1.681,3.644c-.087.842-.095,1.694-.116,2.542-.018.707,0,1.414,0,2.157" transform="translate(0.001 -146.473)" fill="#0171e7"/>
        <path id="Path_200435" data-name="Path 200435" d="M21.188,47.908a2.457,2.457,0,1,1-2.45,2.463,2.453,2.453,0,0,1,2.45-2.463" transform="translate(-17.618 -45.046)" fill="#0171e7"/>
        <path id="Path_200436" data-name="Path 200436" d="M284.672,47.908a2.457,2.457,0,1,1-2.449,2.464,2.453,2.453,0,0,1,2.449-2.464" transform="translate(-265.362 -45.045)" fill="#0171e7"/>
      </g>
    </g>
  </g>
</svg>
