<svg id="Group_508929" data-name="Group 508929" xmlns="http://www.w3.org/2000/svg" xmlns:xlink="http://www.w3.org/1999/xlink" width="14.803" height="10.012" viewBox="0 0 14.803 10.012">
  <defs>
    <clipPath id="clip-path">
      <rect id="Rectangle_149106" data-name="Rectangle 149106" width="14.803" height="10.012" fill="#6fc88d"/>
    </clipPath>
  </defs>
  <g id="Group_508903" data-name="Group 508903" clip-path="url(#clip-path)">
    <path id="Path_200415" data-name="Path 200415" d="M14.8,5.3a.566.566,0,0,1-.615.347c-.211-.014-.424,0-.636,0-.468,0-.619-.153-.619-.626q0-.817,0-1.634V3.2c-.066.062-.108.1-.147.137Q10.522,5.6,8.259,7.867a.912.912,0,0,1-.955.291,1.2,1.2,0,0,1-.46-.279C6.313,7.367,5.8,6.84,5.276,6.318c-.037-.037-.07-.079-.149-.168a.865.865,0,0,1-.1.167Q3.277,8.072,1.52,9.821a.682.682,0,0,1-.355.189A.477.477,0,0,1,.824,9.9C.575,9.681.347,9.438.117,9.2A.978.978,0,0,1,0,9V8.771a4.51,4.51,0,0,1,.289-.352Q2.35,6.351,4.416,4.288a.944.944,0,0,1,1.469,0c.548.548,1.1,1.1,1.631,1.634l4.05-4.051c-.036,0-.081-.006-.127-.006H9.676a.463.463,0,0,1-.515-.519c0-.284,0-.569,0-.853A.455.455,0,0,1,9.647,0q2.335,0,4.669,0A.5.5,0,0,1,14.8.357Z" transform="translate(0 0)" fill="#6fc88d"/>
  </g>
</svg>
