<svg xmlns="http://www.w3.org/2000/svg" xmlns:xlink="http://www.w3.org/1999/xlink" width="32" height="32" viewBox="0 0 32 32">
  <defs>
    <clipPath id="clip-path">
      <rect id="Rectangle_149193" data-name="Rectangle 149193" width="17.16" height="17.127" fill="none"/>
    </clipPath>
  </defs>
  <g id="Group_508995" data-name="Group 508995" transform="translate(-604 -416)">
    <path id="Path_200450" data-name="Path 200450" d="M16,0A16,16,0,1,1,0,16,16,16,0,0,1,16,0Z" transform="translate(604 416)" fill="#f0f0f4"/>
    <g id="Group_508976" data-name="Group 508976" transform="translate(611.42 423.437)">
      <g id="Group_508958" data-name="Group 508958" clip-path="url(#clip-path)">
        <path id="Path_200437" data-name="Path 200437" d="M0,201.221v-8.764l.037-.039.234,0H16.943l.217,0v9c-.048,0-.057.037-.069.078a2.133,2.133,0,0,1-1.525,1.525c-.041.012-.074.021-.078.069H1.706c-.005-.072-.066-.06-.111-.076A2.125,2.125,0,0,1,.067,201.3c-.008-.044-.02-.074-.067-.08m5.212-4.365a.721.721,0,0,0,.167.462q.931,1.265,1.859,2.532a.73.73,0,0,0,1.237.095l3.936-3.937a1.458,1.458,0,0,0,.145-.161.709.709,0,0,0-.428-1.123.733.733,0,0,0-.7.249q-1.671,1.674-3.343,3.348c-.089.09-.13.1-.208-.013-.279-.4-.57-.784-.857-1.175-.181-.247-.357-.5-.549-.737a.693.693,0,0,0-.784-.221.713.713,0,0,0-.472.681" transform="translate(0 -185.967)" fill="#fff"/>
        <path id="Path_200438" data-name="Path 200438" d="M18.069,67.942l-.217,0H1.179l-.234,0c0-.752-.011-1.505,0-2.257a2.137,2.137,0,0,1,1.608-1.987,5.706,5.706,0,0,1,1.232-.066c0,.451,0,.9,0,1.352a.731.731,0,0,0,.79.789c.217,0,.434-.008.651,0a.741.741,0,0,0,.705-.7c-.021-.483,0-.968,0-1.452.055,0,.111.008.166.008h6.812c.055,0,.111-.005.166-.008q0,.734.006,1.468a.7.7,0,0,0,.682.681c.222,0,.445,0,.668,0a.737.737,0,0,0,.791-.789q0-.676,0-1.352c.245,0,.491-.007.736,0a2.109,2.109,0,0,1,1.783,1.009,3.186,3.186,0,0,1,.324.828Z" transform="translate(-0.909 -61.485)" fill="#0171e7"/>
        <path id="Path_200439" data-name="Path 200439" d="M155.44,262.873a.713.713,0,0,1,.472-.681.693.693,0,0,1,.784.221c.192.239.367.49.549.737.287.391.577.779.857,1.175.078.111.119.1.208.013q1.668-1.677,3.343-3.348a.733.733,0,0,1,.7-.249.709.709,0,0,1,.428,1.123,1.464,1.464,0,0,1-.145.161l-3.936,3.937a.73.73,0,0,1-1.237-.095q-.93-1.266-1.859-2.532a.721.721,0,0,1-.167-.462" transform="translate(-150.228 -251.984)" fill="#0171e7"/>
        <path id="Path_200440" data-name="Path 200440" d="M85.794,2.151c0-.44.006-.88.008-1.32A.733.733,0,0,1,86.628.01c.189,0,.379,0,.568,0a.705.705,0,0,1,.745.744c0,.463,0,.925,0,1.388,0,.484-.021.969,0,1.452a.741.741,0,0,1-.705.7c-.217-.01-.434,0-.651,0A.731.731,0,0,1,85.8,3.5c0-.451,0-.9,0-1.352" transform="translate(-82.918 -0.009)" fill="#0171e7"/>
        <path id="Path_200441" data-name="Path 200441" d="M362.923,2.133c0-.463,0-.925,0-1.388A.7.7,0,0,1,363.668,0q.318,0,.635,0a.718.718,0,0,1,.759.754c.006.462.006.925.009,1.387s0,.9,0,1.352a.737.737,0,0,1-.791.789c-.223,0-.445,0-.668,0a.7.7,0,0,1-.682-.681q0-.734-.006-1.468" transform="translate(-350.754 0)" fill="#0171e7"/>
      </g>
    </g>
  </g>
</svg>
