<svg xmlns="http://www.w3.org/2000/svg" width="8.647" height="11.352" viewBox="0 0 8.647 11.352">
  <g id="sort" transform="translate(-60.983 0)">
    <g id="Group_8786" data-name="Group 8786" transform="translate(60.983 0)">
      <g id="Group_8785" data-name="Group 8785" transform="translate(0 0)">
        <path id="Path_3995" data-name="Path 3995" d="M65.573,2.786l-2-2.661a.344.344,0,0,0-.532,0l-2,2.661a.333.333,0,0,0,.266.532h1V9.637a.332.332,0,0,0,.333.333h1.33a.329.329,0,0,0,.328-.333V3.318h1A.333.333,0,0,0,65.573,2.786Z" transform="translate(-60.983 0)" fill="#187af9"/>
      </g>
    </g>
    <g id="Group_8788" data-name="Group 8788" transform="translate(64.974 1.374)">
      <g id="Group_8787" data-name="Group 8787" transform="translate(0)">
        <path id="Path_3996" data-name="Path 3996" d="M245.308,68.652h-1V62.334a.329.329,0,0,0-.328-.333h-1.33a.332.332,0,0,0-.333.333v6.319h-1a.333.333,0,0,0-.266.532l2,2.661a.332.332,0,0,0,.532,0l2-2.661A.333.333,0,0,0,245.308,68.652Z" transform="translate(-240.984 -62.001)" fill="#187af9"/>
      </g>
    </g>
  </g>
</svg>
